<svg width="16" height="16" viewBox="0 0 16 16" fill="none" xmlns="http://www.w3.org/2000/svg">
<path d="M15.4559 4.9208C15.4467 4.28996 15.3301 3.66413 15.1067 3.07413C14.7159 2.06663 13.9201 1.26996 12.9126 0.879964C12.3301 0.660798 11.7142 0.543298 11.0909 0.529964C10.2892 0.494131 10.0351 0.484131 8.00006 0.484131C5.96506 0.484131 5.70423 0.484131 4.90839 0.529964C4.28589 0.543298 3.67006 0.660798 3.08756 0.879964C2.08006 1.26996 1.28339 2.06663 0.893392 3.07413C0.674225 3.65663 0.555892 4.27246 0.544225 4.89496C0.508392 5.69746 0.497559 5.95163 0.497559 7.98663C0.497559 10.0216 0.497559 10.2816 0.544225 11.0783C0.556725 11.7016 0.674225 12.3166 0.893392 12.9008C1.28423 13.9075 2.08006 14.7041 3.08839 15.0941C3.66839 15.3208 4.28423 15.4491 4.90923 15.4691C5.71173 15.505 5.96589 15.5158 8.00089 15.5158C10.0359 15.5158 10.2967 15.5158 11.0926 15.4691C11.7151 15.4566 12.3309 15.3391 12.9142 15.12C13.9217 14.7291 14.7176 13.9325 15.1084 12.9258C15.3276 12.3425 15.4451 11.7275 15.4576 11.1033C15.4934 10.3016 15.5042 10.0475 15.5042 8.01163C15.5026 5.97663 15.5026 5.7183 15.4559 4.9208ZM7.99506 11.835C5.86673 11.835 4.14256 10.1108 4.14256 7.98246C4.14256 5.85413 5.86673 4.12996 7.99506 4.12996C10.1217 4.12996 11.8476 5.85413 11.8476 7.98246C11.8476 10.1108 10.1217 11.835 7.99506 11.835ZM12.0009 4.8858C11.5034 4.8858 11.1026 4.48413 11.1026 3.98746C11.1026 3.4908 11.5034 3.08913 12.0009 3.08913C12.4967 3.08913 12.8984 3.4908 12.8984 3.98746C12.8984 4.48413 12.4967 4.8858 12.0009 4.8858Z" fill="#33354D"/>
</svg>
