<svg width="864" height="591" viewBox="0 0 864 591" fill="none" xmlns="http://www.w3.org/2000/svg">
<path d="M0.477051 34.5511C0.477051 22.5569 0.477051 16.5598 2.80976 11.9786C4.86167 7.9489 8.1358 4.67263 12.1629 2.61939C16.7411 0.285156 22.7343 0.285156 34.7207 0.285156H829.281C841.267 0.285156 847.26 0.285156 851.838 2.61939C855.866 4.67263 859.14 7.9489 861.192 11.9786C863.524 16.5598 863.524 22.5569 863.524 34.5511V556.036C863.524 568.031 863.524 574.028 861.192 578.609C859.14 582.639 855.866 585.915 851.838 587.968C847.26 590.302 841.267 590.302 829.281 590.302H34.7207C22.7343 590.302 16.7411 590.302 12.1629 587.968C8.1358 585.915 4.86167 582.639 2.80976 578.609C0.477051 574.028 0.477051 568.031 0.477051 556.036V34.5511Z" fill="#121515"/>
</svg>
